<svg width="18" height="18" viewBox="0 0 18 18" fill="none" xmlns="http://www.w3.org/2000/svg">
<path d="M12.7355 1.44166C13.7281 1.44451 14.6792 1.82521 15.3811 2.50061C16.0829 3.17601 16.4786 4.09122 16.4815 5.04638V12.255C16.4786 13.2102 16.0829 14.1254 15.3811 14.8008C14.6792 15.4762 13.7281 15.8569 12.7355 15.8598H5.24421C4.25161 15.8569 3.30052 15.4762 2.59864 14.8008C1.89676 14.1254 1.50114 13.2102 1.49818 12.255V5.04638C1.50114 4.09122 1.89676 3.17601 2.59864 2.50061C3.30052 1.82521 4.25161 1.44451 5.24421 1.44166H12.7355ZM12.7355 0H5.24421C2.35984 0 0 2.27081 0 5.04638V12.255C0 15.0306 2.35984 17.3014 5.24421 17.3014H12.7355C15.6199 17.3014 17.9797 15.0306 17.9797 12.255V5.04638C17.9797 2.27081 15.6199 0 12.7355 0Z" fill="white"/>
<path d="M13.8594 5.04696C13.6372 5.04696 13.4199 4.98354 13.2351 4.86472C13.0503 4.7459 12.9063 4.57702 12.8212 4.37943C12.7362 4.18184 12.7139 3.96442 12.7573 3.75466C12.8006 3.5449 12.9077 3.35222 13.0648 3.20099C13.222 3.04977 13.4222 2.94678 13.6402 2.90506C13.8582 2.86333 14.0841 2.88475 14.2894 2.96659C14.4948 3.04843 14.6703 3.18703 14.7938 3.36486C14.9172 3.54268 14.9831 3.75175 14.9831 3.96562C14.9835 4.10771 14.9546 4.24846 14.8983 4.37979C14.8419 4.51112 14.7591 4.63045 14.6547 4.73092C14.5503 4.83139 14.4263 4.91103 14.2898 4.96527C14.1533 5.0195 14.0071 5.04726 13.8594 5.04696ZM8.99005 5.76759C9.58275 5.76759 10.1621 5.93672 10.655 6.25358C11.1478 6.57045 11.5319 7.02082 11.7587 7.54775C11.9855 8.07467 12.0448 8.65449 11.9292 9.21387C11.8136 9.77326 11.5282 10.2871 11.1091 10.6904C10.69 11.0937 10.156 11.3683 9.57468 11.4796C8.99337 11.5908 8.39082 11.5337 7.84324 11.3155C7.29565 11.0972 6.82763 10.7276 6.49834 10.2534C6.16905 9.77917 5.99329 9.22163 5.99329 8.65129C5.99414 7.88674 6.31015 7.15373 6.87196 6.61311C7.43378 6.07249 8.19552 5.76841 8.99005 5.76759ZM8.99005 4.32593C8.10103 4.32593 7.23199 4.57961 6.4928 5.05489C5.75361 5.53016 5.17749 6.20569 4.83728 6.99605C4.49706 7.7864 4.40805 8.65609 4.58149 9.49513C4.75493 10.3342 5.18303 11.1049 5.81165 11.7098C6.44028 12.3147 7.2412 12.7266 8.11313 12.8935C8.98506 13.0604 9.88884 12.9748 10.7102 12.6474C11.5315 12.32 12.2335 11.7656 12.7274 11.0543C13.2213 10.343 13.485 9.50677 13.485 8.65129C13.485 7.50414 13.0114 6.40396 12.1684 5.5928C11.3255 4.78164 10.1822 4.32593 8.99005 4.32593Z" fill="white"/>
</svg>
