<svg width="19" height="19" viewBox="0 0 19 19" fill="none" xmlns="http://www.w3.org/2000/svg">
<path d="M16.6025 0H1.54195C0.719011 0 0 0.592127 0 1.40539V16.4994C0 17.3171 0.719011 18.0458 1.54195 18.0458H16.5981C17.4254 18.0458 18.0458 17.3123 18.0458 16.4994V1.40539C18.0506 0.592127 17.4254 0 16.6025 0ZM5.59379 15.042H3.00857V7.00401H5.59379V15.042ZM4.3906 5.7819H4.37207C3.5447 5.7819 3.00897 5.166 3.00897 4.39503C3.00897 3.60996 3.5588 3.00857 4.4047 3.00857C5.25059 3.00857 5.7682 3.60553 5.78673 4.39503C5.78633 5.166 5.25059 5.7819 4.3906 5.7819ZM15.042 15.042H12.4568V10.647C12.4568 9.59407 12.0806 8.87465 11.1453 8.87465C10.4307 8.87465 10.0077 9.35802 9.81964 9.8289C9.74915 9.99808 9.73021 10.2285 9.73021 10.4637V15.042H7.145V7.00401H9.73021V8.12261C10.1064 7.58688 10.6941 6.8159 12.0617 6.8159C13.7587 6.8159 15.0424 7.9345 15.0424 10.3461L15.042 15.042Z" fill="white"/>
</svg>
