<svg width="13" height="17" viewBox="0 0 13 17" fill="none" xmlns="http://www.w3.org/2000/svg">
<path d="M6.39175 8.74786C7.69327 8.74786 8.74835 7.69278 8.74835 6.39127C8.74835 5.08975 7.69327 4.03467 6.39175 4.03467C5.09024 4.03467 4.03516 5.08975 4.03516 6.39127C4.03516 7.69278 5.09024 8.74786 6.39175 8.74786Z" stroke="#FFCC4A" stroke-linecap="round" stroke-linejoin="round"/>
<path d="M12.283 6.39149C12.283 11.6938 6.39149 15.8179 6.39149 15.8179C6.39149 15.8179 0.5 11.6938 0.5 6.39149C0.5 4.82897 1.12071 3.33045 2.22558 2.22558C3.33045 1.12071 4.82897 0.5 6.39149 0.5C7.95402 0.5 9.45254 1.12071 10.5574 2.22558C11.6623 3.33045 12.283 4.82897 12.283 6.39149V6.39149Z" stroke="#FFCC4A" stroke-linecap="round" stroke-linejoin="round"/>
</svg>
