<svg width="20" height="16" viewBox="0 0 20 16" fill="none" xmlns="http://www.w3.org/2000/svg">
<path d="M19.885 1.88359C19.1391 2.20746 18.3499 2.42084 17.5423 2.51697C18.391 2.02036 19.0292 1.2314 19.3373 0.298068C18.5349 0.766932 17.6585 1.09591 16.7456 1.27091C16.3612 0.86833 15.8989 0.548069 15.3868 0.329591C14.8747 0.111112 14.3235 -0.00102141 13.7666 7.01042e-06C11.5122 7.01042e-06 9.68771 1.79666 9.68771 4.01142C9.68611 4.31948 9.72144 4.62663 9.79294 4.9263C8.17632 4.85057 6.59333 4.43847 5.14523 3.71636C3.69713 2.99425 2.41581 1.97804 1.38325 0.732741C1.021 1.34299 0.829424 2.03926 0.828541 2.7488C0.828541 4.13975 1.55476 5.36925 2.65133 6.08957C2.00164 6.07416 1.36527 5.90233 0.796228 5.58866V5.63834C0.796228 7.58402 2.20475 9.20266 4.06896 9.57109C3.7184 9.66448 3.35715 9.71179 2.99435 9.71185C2.73691 9.71229 2.48006 9.68733 2.22753 9.63733C2.74578 11.2311 4.25414 12.3903 6.04089 12.4234C4.58903 13.5415 2.80652 14.1458 0.973535 14.1414C0.648175 14.1409 0.323117 14.1215 0 14.0834C1.86471 15.2733 4.03228 15.9026 6.24471 15.8966C13.7579 15.8966 17.8625 9.78222 17.8625 4.47921C17.8625 4.30534 17.858 4.13147 17.8497 3.96174C18.6463 3.39545 19.3356 2.69171 19.885 1.88359Z" fill="white"/>
</svg>
